<?xml version="1.0" encoding="UTF-8" standalone="no"?>
<!-- Created with Inkscape (http://www.inkscape.org/) -->

<svg
   width="1920"
   height="1080"
   viewBox="0 0 508 285.75"
   version="1.1"
   id="svg961"
   inkscape:version="1.1.2 (0a00cf5339, 2022-02-04)"
   sodipodi:docname="title.svg"
   xmlns:inkscape="http://www.inkscape.org/namespaces/inkscape"
   xmlns:sodipodi="http://sodipodi.sourceforge.net/DTD/sodipodi-0.dtd"
   xmlns="http://www.w3.org/2000/svg"
   xmlns:svg="http://www.w3.org/2000/svg">
  <sodipodi:namedview
     id="namedview963"
     pagecolor="#ffffff"
     bordercolor="#666666"
     borderopacity="1.0"
     inkscape:pageshadow="2"
     inkscape:pageopacity="0.0"
     inkscape:pagecheckerboard="0"
     inkscape:document-units="mm"
     showgrid="false"
     units="px"
     inkscape:zoom="0.90583672"
     inkscape:cx="1326.95"
     inkscape:cy="817.47624"
     inkscape:window-width="1850"
     inkscape:window-height="1016"
     inkscape:window-x="70"
     inkscape:window-y="27"
     inkscape:window-maximized="1"
     inkscape:current-layer="layer1"
     showguides="true"
     inkscape:guide-bbox="true">
    <sodipodi:guide
       position="-76.005563,42.862657"
       orientation="1,0"
       id="guide1279" />
    <sodipodi:guide
       position="106.57302,40.384214"
       orientation="0,-1"
       id="guide1281" />
    <sodipodi:guide
       position="-76.005563,40.384214"
       orientation="1,0"
       id="guide1283" />
    <sodipodi:guide
       position="552.69263,40.384214"
       orientation="0,-1"
       id="guide1285" />
    <sodipodi:guide
       position="412.71925,46.822651"
       orientation="0,-1"
       id="guide1287" />
    <sodipodi:guide
       position="404.58959,11.590266"
       orientation="0,-1"
       id="guide1289" />
  </sodipodi:namedview>
  <defs
     id="defs958">
    <clipPath
       id="clippath">
      <path
         d="M 46.56,0.21 C 46.27,0.28 45.99,0.38 45.71,0.49 27.58,7.87 13.41,21.86 5.8,39.9 1.94,49.05 0,58.69 0,68.33 v 0.04 c 0,9.35 1.81,18.69 5.44,27.61 1.05,2.59 3.55,4.16 6.19,4.16 0.84,0 1.69,-0.16 2.51,-0.49 3.42,-1.39 5.06,-5.28 3.67,-8.7 C 11.78,76.12 11.89,59.84 18.11,45.09 24.33,30.34 35.92,18.9 50.75,12.87 54.17,11.48 55.81,7.59 54.42,4.17 53.59,2.13 51.87,0.73 49.89,0.22 h -3.32 z"
         fill="none"
         id="path2" />
    </clipPath>
    <linearGradient
       id="Unbenannter_Verlauf_21"
       x1="-202.72"
       y1="363.89999"
       x2="-201.72"
       y2="363.89999"
       gradientTransform="matrix(94.9,0,0,-94.9,19222.58,34584.59)"
       gradientUnits="userSpaceOnUse">
      <stop
         offset="0"
         stop-color="#fff"
         stop-opacity="0"
         id="stop5" />
      <stop
         offset=".18"
         stop-color="#3aa7df"
         stop-opacity=".2"
         id="stop7" />
      <stop
         offset=".44"
         stop-color="#3aa7df"
         stop-opacity=".35"
         id="stop9" />
      <stop
         offset="1"
         stop-color="#3aa7df"
         id="stop11" />
    </linearGradient>
    <clipPath
       id="clippath-1">
      <path
         d="m 132.49,37.1 c -3.42,1.39 -5.06,5.28 -3.67,8.7 6.03,14.83 5.93,31.12 -0.29,45.86 -6.22,14.75 -17.81,26.19 -32.64,32.22 -1.88,0.76 -3.22,2.28 -3.82,4.06 v 4.24 c 0.05,0.13 0.09,0.26 0.15,0.39 0.69,1.7 2.01,2.97 3.58,3.63 h 5.22 c 18.08,-7.38 32.22,-21.36 39.82,-39.36 7.61,-18.03 7.73,-37.95 0.36,-56.08 -1.05,-2.59 -3.55,-4.16 -6.19,-4.16 -0.84,0 -1.69,0.16 -2.51,0.49"
         fill="none"
         id="path14" />
    </clipPath>
    <linearGradient
       id="Unbenannter_Verlauf_22"
       x1="-207.67"
       y1="367.51001"
       x2="-206.67"
       y2="367.51001"
       gradientTransform="matrix(-108.02,0,0,108.02,-22263.89,-39613.6)"
       gradientUnits="userSpaceOnUse">
      <stop
         offset="0"
         stop-color="#fff"
         stop-opacity="0"
         id="stop17" />
      <stop
         offset=".18"
         stop-color="#3aa7df"
         stop-opacity=".2"
         id="stop19" />
      <stop
         offset=".44"
         stop-color="#3aa7df"
         stop-opacity=".35"
         id="stop21" />
      <stop
         offset="1"
         stop-color="#3aa7df"
         id="stop23" />
    </linearGradient>
    <clipPath
       id="clippath-3">
      <rect
         width="441.42999"
         height="136.74001"
         fill="none"
         id="rect1577"
         x="0"
         y="0" />
    </clipPath>
  </defs>
  <g
     inkscape:label="Layer 1"
     inkscape:groupmode="layer"
     id="layer1">
    <g
       clip-path="url(#clippath)"
       id="g36"
       transform="matrix(0.26458333,0,0,0.26458333,382.62403,238.3426)">
      <rect
         x="-25.07"
         y="16.450001"
         width="105.94"
         height="67.459999"
         transform="rotate(-83.07,27.8933,50.174347)"
         fill="url(#Unbenannter_Verlauf_21)"
         id="rect34"
         style="fill:url(#Unbenannter_Verlauf_21)" />
    </g>
    <g
       clip-path="url(#clippath-1)"
       id="g40"
       transform="matrix(0.26458333,0,0,0.26458333,382.62403,238.3426)">
      <rect
         x="68.150002"
         y="53.73"
         width="104.35"
         height="65.349998"
         transform="rotate(-84.76,120.32069,86.403154)"
         fill="url(#Unbenannter_Verlauf_22)"
         id="rect38"
         style="fill:url(#Unbenannter_Verlauf_22)" />
    </g>
    <g
       id="g62"
       transform="matrix(0.26458333,0,0,0.26458333,382.62403,238.3426)">
      <path
         d="m 173.96,33.01 c 0,-3.96 3.14,-7.1 7.21,-7.1 4.07,0 7.1,3.14 7.1,7.1 v 68.42 c 0,3.96 -3.14,7.1 -7.1,7.1 -3.96,0 -7.21,-3.14 -7.21,-7.1 z"
         fill="#3aa7df"
         id="path42" />
      <path
         d="m 202.41,33.24 c 0,-3.96 3.14,-7.21 7.21,-7.21 h 1.51 c 3.14,0 5.24,1.63 6.63,3.84 l 24.67,38.63 24.79,-38.75 c 1.51,-2.44 3.61,-3.72 6.52,-3.72 h 1.51 c 4.07,0 7.21,3.26 7.21,7.21 v 68.19 c 0,3.96 -3.14,7.1 -7.21,7.1 -3.84,0 -7.1,-3.26 -7.1,-7.1 V 52.56 l -19.9,29.91 c -1.51,2.33 -3.37,3.72 -6.05,3.72 -2.68,0 -4.42,-1.4 -5.93,-3.72 L 216.49,52.8 v 48.76 c 0,3.96 -3.14,6.98 -7.1,6.98 -3.96,0 -6.98,-3.03 -6.98,-6.98 z"
         fill="#3aa7df"
         id="path44" />
      <path
         d="m 331.74,66.87 c 10.24,0 16.76,-5.35 16.76,-13.62 v -0.23 c 0,-8.73 -6.29,-13.5 -16.87,-13.5 H 310.8 v 27.35 h 20.95 z M 296.48,33.71 c 0,-4.07 3.14,-7.21 7.21,-7.21 h 29.09 c 10.24,0 18.27,3.03 23.51,8.15 4.3,4.42 6.75,10.47 6.75,17.57 v 0.23 c 0,13.03 -7.56,20.95 -18.5,24.32 l 15.59,19.67 c 1.4,1.74 2.33,3.26 2.33,5.47 0,3.96 -3.38,6.63 -6.87,6.63 -3.26,0 -5.35,-1.51 -6.98,-3.72 L 328.83,79.57 h -18.04 v 21.88 c 0,3.96 -3.14,7.1 -7.1,7.1 -3.96,0 -7.21,-3.14 -7.21,-7.1 z"
         fill="#3aa7df"
         id="path46" />
      <path
         d="m 368.13,67.45 v -0.23 c 0,-23.16 17.34,-42.12 42.01,-42.12 12.57,0 20.83,3.72 27.93,9.19 1.51,1.16 2.79,3.14 2.79,5.7 0,3.96 -3.14,6.98 -7.1,6.98 -1.98,0 -3.37,-0.7 -4.31,-1.4 -5.58,-4.54 -11.64,-7.33 -19.43,-7.33 -15.48,0 -26.88,12.8 -26.88,28.74 v 0.23 c 0,15.94 11.29,28.86 26.88,28.86 8.61,0 14.43,-2.79 20.36,-7.79 1.05,-0.93 2.56,-1.63 4.3,-1.63 3.61,0 6.75,3.02 6.75,6.63 0,2.21 -1.05,3.96 -2.33,5.12 -7.68,6.75 -16.41,10.94 -29.56,10.94 -23.74,0 -41.43,-18.5 -41.43,-41.89"
         fill="#3aa7df"
         id="path48" />
      <path
         d="m 41.89,6.5 c 0,-3.59 2.92,-6.5 6.51,-6.5 3.59,0 6.5,2.91 6.5,6.51 0,3.6 -2.91,6.5 -6.5,6.5 -3.59,0 -6.51,-2.91 -6.51,-6.5"
         fill="#436cb3"
         id="path50" />
      <path
         d="m 91.86,130.09 c 0,-3.59 2.91,-6.51 6.5,-6.51 3.59,0 6.5,2.91 6.5,6.51 0,3.6 -2.91,6.51 -6.5,6.51 -3.59,0 -6.5,-2.91 -6.5,-6.51"
         fill="#436cb3"
         id="path52" />
      <path
         d="m 174.52,29.97 c 1.63,-3.55 5.83,-5.11 9.38,-3.48 3.55,1.63 5.11,5.83 3.48,9.38 -1.63,3.55 -5.83,5.11 -9.38,3.48 -3.55,-1.63 -5.11,-5.83 -3.48,-9.38"
         fill="#436cb3"
         id="path54" />
      <path
         d="m 268.74,98.77 c 1.63,-3.55 5.83,-5.11 9.38,-3.48 3.55,1.63 5.11,5.83 3.48,9.38 -1.63,3.55 -5.83,5.11 -9.38,3.48 -3.55,-1.63 -5.11,-5.83 -3.48,-9.38"
         fill="#436cb3"
         id="path56" />
      <path
         d="m 349.01,98.77 c 1.63,-3.55 5.83,-5.11 9.38,-3.48 3.55,1.63 5.11,5.83 3.48,9.38 -1.63,3.55 -5.83,5.11 -9.38,3.48 -3.55,-1.63 -5.11,-5.83 -3.48,-9.38"
         fill="#436cb3"
         id="path58" />
      <path
         d="m 427.58,37.22 c 1.63,-3.55 5.83,-5.11 9.38,-3.48 3.55,1.63 5.11,5.83 3.48,9.38 -1.63,3.55 -5.83,5.11 -9.38,3.48 -3.55,-1.63 -5.11,-5.83 -3.48,-9.38"
         fill="#436cb3"
         id="path60" />
    </g>
    <g
       transform="matrix(0.03505724,0,0,-0.03505724,303.91005,274.15973)"
       id="g12">
      <path
         d="m 954.277,0 c 79.903,0 137.323,23.7188 181.913,53.5938 41.58,27.8593 73.81,60.8322 98.54,103.3592 31.95,54.973 41.79,106.063 44.49,135.703 0.02,0.242 58.71,617.86 58.71,617.86 l -296.23,0.019 C 1041.7,910.535 954.18,0 954.277,0"
         inkscape:connector-curvature="0"
         id="path14-6"
         style="fill:#c50e1f;fill-opacity:1;fill-rule:nonzero;stroke:none" />
      <path
         d="M 674.004,703.535 633.895,286.934 c -7.379,-99.7 30,-150.918 53.261,-177.911 42.485,-49.2886 120.61,-88.0386 210.832,-104.19878 2.5,26.49218 80.215,832.89878 80.215,833.04678 2.695,41.395 -9.355,77.598 -36.973,109.141 -32.207,36.785 -79.863,47.812 -99.55,47.812 L 133.391,994.746 C 80.1055,994.746 0,940.672 0,851.492 0,741.301 97.918,703.523 131.609,703.523 c 17.2,0 542.395,0.012 542.395,0.012"
         inkscape:connector-curvature="0"
         id="path16"
         style="fill:#c50e1f;fill-opacity:1;fill-rule:nonzero;stroke:none" />
      <path
         d="m 261.555,83.7305 263.758,0.0078 53.972,560.5197 -263.765,-0.012 c 0,0 -47.141,-487.93 -53.965,-560.5155 v 0"
         inkscape:connector-curvature="0"
         id="path18"
         style="fill:#c50e1f;fill-opacity:1;fill-rule:nonzero;stroke:none" />
      <path
         d="m 1145.06,412.961 c -1.6,-16.555 16.6,-25.461 33.83,-25.481 l 31.54,-0.031 c 1.87,4.555 2.99,9.719 3.61,16.137 1.68,17.586 -7.81,29.59 -35.27,29.617 -20.49,0.012 -32.38,-6.398 -33.71,-20.242 z m 86.23,-11.035 c -1.39,-14.485 -3.87,-25.453 -7.83,-36.621 l -146.94,0.125 2.15,22.136 46.94,-0.039 c 5.93,-0.007 14.08,-0.632 19.27,-1.882 l 0.04,0.418 c -12.19,5.382 -19,17.597 -17.54,32.707 2.35,24.406 20.86,37.832 51.58,37.812 35.26,-0.027 55.63,-20.527 52.33,-54.656"
         inkscape:connector-curvature="0"
         id="path20"
         style="fill:#ffffff;fill-opacity:1;fill-rule:nonzero;stroke:none" />
      <path
         d="m 1153.55,520.371 c -1.19,-12.402 7.19,-21.105 21.16,-22.988 l 4.2,43.652 c -14.32,0.43 -24.11,-7.629 -25.36,-20.664 z m 42.56,41.965 -6.29,-65.371 c 23.11,-0.649 34.3,9.273 36.33,30.379 0.96,9.922 -0.1,20.273 -3.08,29.59 l 17.28,2.871 c 3.07,-10.75 4.28,-23.586 3.05,-36.407 -3.05,-31.652 -21.13,-49.218 -56.99,-49.187 -30.55,0.027 -52,17.625 -49.14,47.41 2.83,29.375 23.26,41.57 46.42,41.555 3.28,0 8.19,-0.227 12.42,-0.84"
         inkscape:connector-curvature="0"
         id="path22"
         style="fill:#ffffff;fill-opacity:1;fill-rule:nonzero;stroke:none" />
      <path
         d="m 1170.43,640.41 c -5.86,-20.469 7.32,-30.41 37.85,-30.441 l 41.41,-0.028 -2.15,-22.136 -101.84,0.086 2.03,21.101 c 5.73,-0.008 14.69,-0.633 22.35,-2.09 l 0.04,0.411 c -13.3,4.574 -25,14.921 -21.1,34.16 l 21.41,-1.063"
         inkscape:connector-curvature="0"
         id="path24"
         style="fill:#ffffff;fill-opacity:1;fill-rule:nonzero;stroke:none" />
      <path
         d="m 1254.53,660.391 -149.59,0.125 2.13,22.129 149.59,-0.125 -2.13,-22.129"
         inkscape:connector-curvature="0"
         id="path26"
         style="fill:#ffffff;fill-opacity:1;fill-rule:nonzero;stroke:none" />
      <path
         d="m 1259.57,712.793 -101.84,0.09 2.13,22.129 101.86,-0.09 z m -118.81,11.27 c -0.74,-7.872 -7.3,-14.266 -15.1,-14.258 -7.57,0 -13.1,6.414 -12.36,14.289 0.74,7.652 7.52,14.051 15.1,14.051 7.58,-0.008 13.1,-6.426 12.36,-14.082"
         inkscape:connector-curvature="0"
         id="path28-4"
         style="fill:#ffffff;fill-opacity:1;fill-rule:nonzero;stroke:none" />
      <path
         d="m 1270.8,829.395 -65.37,0.058 c -12.7,0.012 -20.63,-3.508 -21.76,-15.293 -1.48,-15.527 13.6,-26.902 34.1,-26.926 l 48.97,-0.039 -2.13,-22.136 -101.84,0.086 2.03,21.105 c 5.53,-0.012 14.3,-0.43 19.93,-1.465 l 0.02,0.203 c -12.54,6.008 -20.36,18.43 -18.68,35.813 2.25,23.371 17.7,30.594 35.53,30.578 l 71.31,-0.063 -2.11,-21.921"
         inkscape:connector-curvature="0"
         id="path30-6"
         style="fill:#ffffff;fill-opacity:1;fill-rule:nonzero;stroke:none" />
    </g>
    <g
       clip-path="url(#clippath-3)"
       id="g1613"
       transform="matrix(0.26458333,0,0,0.26458333,382.83763,236.62694)">
      <path
         d="M 108.28,81.32 36.03,68.58 c -3.63,-0.64 -6.06,-4.1 -5.42,-7.73 0.64,-3.63 4.1,-6.06 7.73,-5.42 l 72.25,12.74 c 3.63,0.64 6.06,4.1 5.42,7.73 -0.64,3.63 -4.1,6.06 -7.73,5.42"
         fill="#575756"
         id="path1609" />
      <path
         d="m 65.79,111.07 c -3.63,-0.64 -6.06,-4.1 -5.42,-7.73 L 73.11,31.09 c 0.64,-3.63 4.1,-6.06 7.73,-5.42 3.63,0.64 6.06,4.1 5.42,7.73 l -12.74,72.25 c -0.64,3.63 -4.1,6.06 -7.73,5.42"
         fill="#575756"
         id="path1611" />
    </g>
  </g>
</svg>
